<?xml version="1.0" encoding="UTF-8"?>
<svg width="28px" height="28px" viewBox="0 0 28 28" version="1.1" xmlns="http://www.w3.org/2000/svg" xmlns:xlink="http://www.w3.org/1999/xlink">
    <title>图标/地址</title>
    <g id="////1.15" stroke="none" stroke-width="1" fill="none" fill-rule="evenodd">
        <g id="5" transform="translate(-1009.000000, -188.000000)">
            <g id="编组-26" transform="translate(394.000000, 136.000000)">
                <g id="编组-24" transform="translate(575.000000, 0.000000)">
                    <g id="图标/地址" transform="translate(40.000000, 52.000000)">
                        <rect id="矩形" stroke="#979797" fill="#D8D8D8" opacity="0" x="0.5" y="0.5" width="27" height="27"></rect>
                        <g id="编组" transform="translate(4.000000, 0.000000)" fill="#197ED7" fill-rule="nonzero">
                            <path d="M10.4999687,28 C10.4999687,28 0,16.2985747 0,10.4999844 C0,4.7015504 4.70140107,0 10.4999687,0 C16.2986615,0 21,4.70158167 21,10.4999844 C21,16.2985434 10.5,28 10.5,28 L10.4999687,28 Z M10.4999687,6.5352448 C8.31041943,6.5352448 6.53512946,8.31056339 6.53512946,10.5000782 C6.53512946,12.689718 8.31041943,14.4649741 10.4999687,14.4649741 C12.6895806,14.4649741 14.4648393,12.689718 14.4648393,10.5000782 C14.4648393,8.31056339 12.6895806,6.5352448 10.4999687,6.5352448 L10.4999687,6.5352448 Z" id="形状"></path>
                        </g>
                    </g>
                </g>
            </g>
        </g>
    </g>
</svg>